<svg height="64" version="1.1" width="380.203125" xmlns="http://www.w3.org/2000/svg" xmlns:xlink="http://www.w3.org/1999/xlink" style="overflow: hidden; position: relative; top: -0.796875px;" viewBox="15 19.999999999999993 380.203125 64" preserveAspectRatio="xMinYMin" id="main_svg"><desc style="-webkit-tap-highlight-color: rgba(0, 0, 0, 0);">Created with Logotizer</desc><defs style="-webkit-tap-highlight-color: rgba(0, 0, 0, 0);"></defs><path fill="#ffffff" stroke="none" d="M-149.63,0L-149.63,-33.61L-131.34,-33.61L-131.34,-30.05L-145.64,-30.05L-145.64,-19.05L-132.54,-19.05L-132.54,-15.52L-145.64,-15.52L-145.64,-3.56L-131.09,-3.56L-131.09,0L-149.63,0ZM-124.29,0L-124.29,-24L-121.62,-24L-120.89,-21.07L-120.7,-21.07Q-119.79,-22.71,-118.51,-23.59Q-117.23,-24.47,-115.27,-24.47Q-113.88,-24.47,-112.15,-24L-112.97,-20.3Q-114.4,-20.77,-115.71,-20.79Q-117.77,-20.79,-118.97,-19.66Q-120.16,-18.54,-120.45,-16.8L-120.45,0L-124.29,0ZM-107.98,0L-107.98,-24L-105.3,-24L-104.58,-21.07L-104.39,-21.07Q-103.1,-22.62,-101.39,-23.6Q-99.68,-24.59,-96.94,-24.59Q-94.64,-24.59,-93.18,-23.7Q-91.71,-22.8,-90.89,-20.6Q-89.79,-22.48,-87.84,-23.53Q-85.9,-24.59,-83.46,-24.59Q-81.45,-24.59,-80.05,-24.13Q-78.66,-23.67,-77.74,-22.51Q-76.83,-21.35,-76.42,-19.38Q-76.01,-17.41,-76.01,-14.39L-76.01,0L-79.85,0L-79.85,-14.44Q-79.85,-16.17,-80.03,-17.45Q-80.2,-18.73,-80.71,-19.56Q-81.21,-20.39,-82.09,-20.8Q-82.97,-21.21,-84.42,-21.21Q-86.81,-21.21,-88.16,-19.88Q-89.51,-18.54,-90.07,-16.03L-90.07,0L-93.91,0L-93.91,-13.59Q-93.91,-15.52,-94.09,-16.92Q-94.27,-18.33,-94.75,-19.29Q-95.23,-20.25,-96.11,-20.73Q-96.98,-21.21,-98.44,-21.21Q-100.64,-21.21,-102.11,-19.88Q-103.57,-18.54,-104.13,-16.52L-104.13,0L-107.98,0ZM-70.38,-12Q-70.38,-18.09,-67.66,-21.34Q-64.95,-24.59,-59.86,-24.59Q-57.16,-24.59,-55.17,-23.7Q-53.18,-22.8,-51.89,-21.14Q-50.6,-19.48,-49.98,-17.16Q-49.36,-14.84,-49.36,-12Q-49.36,-5.91,-52.07,-2.66Q-54.77,0.59,-59.86,0.59Q-62.55,0.59,-64.55,-0.3Q-66.54,-1.2,-67.83,-2.86Q-69.12,-4.52,-69.75,-6.84Q-70.38,-9.16,-70.38,-12M-66.4,-12Q-66.4,-10.17,-66.04,-8.5Q-65.67,-6.82,-64.9,-5.57Q-64.13,-4.31,-62.88,-3.55Q-61.64,-2.79,-59.86,-2.79Q-59.84,-2.79,-59.79,-2.79Q-53.34,-2.79,-53.34,-11.93Q-53.34,-13.88,-53.7,-15.56Q-54.05,-17.25,-54.82,-18.49Q-55.59,-19.73,-56.84,-20.47Q-58.08,-21.21,-59.86,-21.21L-59.93,-21.21Q-66.4,-21.21,-66.4,-12ZM-42.89,-4.8L-42.89,-33.61L-39.05,-33.61L-39.05,-5.91Q-39.05,-4.22,-38.47,-3.5Q-37.9,-2.79,-36.84,-2.79Q-36.21,-2.79,-35.5,-2.88Q-34.78,-2.98,-33.87,-3.3L-33.42,-0.28Q-34.2,0.09,-35.57,0.34Q-36.94,0.59,-37.95,0.59Q-40.1,0.59,-41.5,-0.64Q-42.89,-1.88,-42.89,-4.8ZM-30.66,-12Q-30.66,-18.09,-27.94,-21.34Q-25.22,-24.59,-20.13,-24.59Q-17.44,-24.59,-15.45,-23.7Q-13.45,-22.8,-12.16,-21.14Q-10.88,-19.48,-10.25,-17.16Q-9.63,-14.84,-9.63,-12Q-9.63,-5.91,-12.34,-2.66Q-15.05,0.59,-20.13,0.59Q-22.83,0.59,-24.82,-0.3Q-26.81,-1.2,-28.1,-2.86Q-29.39,-4.52,-30.02,-6.84Q-30.66,-9.16,-30.66,-12M-26.67,-12Q-26.67,-10.17,-26.31,-8.5Q-25.95,-6.82,-25.17,-5.57Q-24.4,-4.31,-23.16,-3.55Q-21.91,-2.79,-20.13,-2.79Q-20.11,-2.79,-20.06,-2.79Q-13.62,-2.79,-13.62,-11.93Q-13.62,-13.88,-13.97,-15.56Q-14.32,-17.25,-15.09,-18.49Q-15.87,-19.73,-17.11,-20.47Q-18.35,-21.21,-20.13,-21.21L-20.2,-21.21Q-26.67,-21.21,-26.67,-12ZM-7.45,-24L-3.02,-24L2.74,-9.94L4.08,-5.37L4.13,-5.37L5.32,-10.03L10.71,-24L14.84,-24L4.59,0.54L2.98,0.54L-7.45,-24ZM19.34,0L19.34,-34.13L21.45,-34.13L37.52,-11.72L40.03,-7.1L40.27,-7.1L39.73,-11.72L39.73,-33.61L43.48,-33.61L43.48,0.54L41.37,0.54L25.38,-21.98L22.8,-26.84L22.59,-26.84L23.09,-21.98L23.09,0L19.34,0ZM49.9,-12Q49.9,-18.14,52.64,-21.36Q55.38,-24.59,60.47,-24.59Q62.11,-24.59,63.74,-24.22Q65.37,-23.86,66.66,-22.85Q67.95,-21.84,68.77,-19.99Q69.59,-18.14,69.59,-15.12Q69.59,-13.52,69.3,-11.63L53.88,-11.63Q53.88,-9.52,54.32,-7.88Q54.75,-6.23,55.66,-5.11Q56.58,-3.98,58.04,-3.39Q59.51,-2.79,61.62,-2.79Q63.26,-2.79,64.89,-3.36Q66.52,-3.94,67.34,-4.71L68.77,-1.92Q67.34,-0.77,65.14,-0.09Q62.95,0.59,60.52,0.59Q57.77,0.59,55.76,-0.3Q53.74,-1.2,52.45,-2.86Q51.16,-4.52,50.53,-6.82Q49.9,-9.12,49.9,-12M53.93,-14.65L65.84,-14.65Q65.84,-18.3,64.45,-19.76Q63.07,-21.21,60.52,-21.21Q57.68,-21.21,55.98,-19.72Q54.28,-18.23,53.93,-14.65ZM72.47,-20.65L72.47,-24L76.2,-24L76.2,-28.76L80.04,-29.86L80.04,-24L86.58,-24L86.58,-20.65L80.04,-20.65L80.04,-7.34Q80.04,-4.85,80.66,-3.82Q81.28,-2.79,82.78,-2.79Q84.02,-2.79,84.89,-3.05Q85.76,-3.3,86.81,-3.75L87.68,-0.82Q86.39,-0.19,84.84,0.2Q83.3,0.59,81.54,0.59Q78.61,0.59,77.4,-1.08Q76.2,-2.74,76.2,-6.63L76.2,-20.65L72.47,-20.65ZM89.25,-20.65L89.25,-24L93,-24L93,-25.34Q93,-27.54,93.36,-29.18Q93.73,-30.82,94.54,-31.85Q95.34,-32.88,96.64,-33.39Q97.95,-33.89,99.87,-33.89Q101.41,-33.89,102.59,-33.7Q103.76,-33.52,105.05,-32.98L104.18,-29.77Q103.08,-30.23,102.09,-30.39Q101.11,-30.54,100.24,-30.54Q99,-30.54,98.3,-30.15Q97.59,-29.77,97.29,-29.02Q96.98,-28.27,96.91,-27.19Q96.84,-26.11,96.84,-24.68L96.84,-24L103.22,-24L103.22,-20.65L96.84,-20.65L96.84,0L93,0L93,-20.65L89.25,-20.65ZM107.63,-4.8L107.63,-33.61L111.47,-33.61L111.47,-5.91Q111.47,-4.22,112.04,-3.5Q112.62,-2.79,113.67,-2.79Q114.3,-2.79,115.02,-2.88Q115.73,-2.98,116.65,-3.3L117.09,-0.28Q116.32,0.09,114.95,0.34Q113.58,0.59,112.57,0.59Q110.41,0.59,109.02,-0.64Q107.63,-1.88,107.63,-4.8ZM121.22,-31.29Q121.22,-32.39,121.96,-33.19Q122.7,-33.98,123.84,-33.98Q124.99,-33.98,125.81,-33.19Q126.63,-32.39,126.63,-31.29Q126.63,-30.19,125.81,-29.47Q124.99,-28.76,123.84,-28.76Q122.7,-28.76,121.96,-29.47Q121.22,-30.19,121.22,-31.29M122.04,0L122.04,-24L125.86,-24L125.86,0L122.04,0ZM131.7,0L140.34,-12.28L132.28,-24L136.99,-24L141.54,-17.37L142.9,-14.65L144.28,-17.37L148.95,-24L153.26,-24L145.15,-12.47L153.73,0L149.18,0L144.09,-7.29L142.64,-10.17L141.16,-7.29L135.98,0L131.7,0Z" transform="matrix(1,0,0,1,241.5,68.0625)" style="-webkit-tap-highlight-color: rgba(0, 0, 0, 0);" stroke-width="1"></path><path fill="#e30b13" stroke="none" d="M90,20H89.6L89.39999999999999,90L19.999999999999986,89.9V90C19.999999999999986,128.7,51.29999999999998,160,89.99999999999999,160S160,128.7,160,90S128.7,20,90,20ZM79.9,0C76.7,0,73.60000000000001,0.2,70.5,0.6C70.3,0.6,70.1,0.6,69.9,0.7C33.7,5.2,5.1,33.9,0.6,70.1C0.5,70.5,0.5,71,0.5,71.39999999999999C0.5,71.6,0.5,71.8,0.4,71.99999999999999C0.30000000000000004,73.19999999999999,0.2,74.29999999999998,0.10000000000000003,75.49999999999999V76.19999999999999C0,77.4,0,78.5,0,79.6V80.1L79.8,80.19999999999999L79.89999999999999,-1.4210854715202004e-14ZM69.8,70.2L10.699999999999996,70.10000000000001C15,39.5,39.2,15.2,69.9,10.7L69.80000000000001,70.2Z" stroke-width="0" opacity="1" transform="matrix(0.4,0,0,0.4,15,20)" style="-webkit-tap-highlight-color: rgba(0, 0, 0, 0); opacity: 1;"></path></svg>